<svg width="29" height="28" viewBox="0 0 29 28" fill="none" xmlns="http://www.w3.org/2000/svg">
<rect x="0.886719" width="28" height="28" rx="14" fill="#E4F0FD"/>
<path d="M11.9716 9.5C12.3998 9.5 12.7907 9.53813 13.1442 9.6136C13.4977 9.68907 13.7996 9.813 14.0514 9.98539C14.3032 10.1578 14.4987 10.3866 14.6377 10.6726C14.7767 10.9586 14.8458 11.3113 14.8458 11.7315C14.8458 12.1851 14.7426 12.5633 14.5368 12.866C14.3311 13.1686 14.026 13.4165 13.6232 13.6095C14.1777 13.7692 14.5916 14.0489 14.8649 14.4477C15.1382 14.8465 15.2748 15.3279 15.2748 15.8911C15.2748 16.3447 15.1866 16.738 15.0103 17.07C14.8339 17.4021 14.5964 17.673 14.2977 17.8827C13.999 18.0932 13.659 18.2482 13.2769 18.3491C12.8924 18.4499 12.4959 18.5008 12.0987 18.5H7.73657V9.5H11.9716ZM11.7198 13.1424C12.0725 13.1424 12.3625 13.0582 12.5897 12.8906C12.8169 12.7222 12.9305 12.4497 12.9297 12.0715C12.9297 11.8618 12.8916 11.6894 12.8161 11.5552C12.7406 11.4209 12.6397 11.3153 12.5134 11.2398C12.3871 11.1643 12.2425 11.1119 12.0789 11.0825C11.9105 11.0531 11.7397 11.038 11.5681 11.0388H9.71627V13.144L11.7198 13.1424ZM11.8334 16.9612C12.0201 16.962 12.206 16.9429 12.3879 16.9048C12.5643 16.8667 12.72 16.8039 12.8542 16.7157C12.9885 16.6275 13.0957 16.5076 13.176 16.3566C13.2554 16.2057 13.2959 16.0119 13.2959 15.7767C13.2959 15.3152 13.1656 14.9847 12.9051 14.7877C12.6445 14.5899 12.2997 14.4913 11.8715 14.4913H9.71627V16.962L11.8334 16.9612ZM17.7645 16.7721C18.033 17.0327 18.4199 17.163 18.9244 17.163C19.2858 17.163 19.5965 17.0724 19.857 16.8921C20.1176 16.7118 20.2773 16.5203 20.3361 16.3185H21.9114C21.6596 17.1002 21.2727 17.6587 20.7516 17.9947C20.2304 18.3308 19.6004 18.4992 18.8608 18.4992C18.3484 18.4992 17.8861 18.4174 17.4746 18.2537C17.0631 18.0901 16.7143 17.8565 16.4283 17.5538C16.1423 17.2512 15.9215 16.8905 15.7666 16.4702C15.6117 16.05 15.5338 15.5876 15.5338 15.084C15.5338 14.597 15.6132 14.1434 15.7729 13.7231C15.9326 13.3029 16.1598 12.9398 16.4537 12.6332C16.7477 12.3265 17.0988 12.085 17.5063 11.9087C17.9139 11.7323 18.3659 11.6441 18.8616 11.6441C19.4161 11.6441 19.8991 11.7514 20.3114 11.9659C20.723 12.1804 21.0614 12.468 21.3259 12.8294C21.5905 13.1909 21.7819 13.6024 21.8995 14.0647C22.0171 14.5271 22.0592 15.0101 22.0258 15.5146H17.3244C17.3491 16.0921 17.496 16.5124 17.7645 16.7721ZM19.7879 13.3442C19.5734 13.1091 19.2477 12.9915 18.8108 12.9915C18.5248 12.9915 18.2873 13.0399 18.099 13.1361C17.9099 13.233 17.759 13.3521 17.6454 13.4951C17.5318 13.6381 17.4523 13.7891 17.4063 13.9488C17.3602 14.1084 17.3324 14.2514 17.3244 14.3769H20.236C20.151 13.9241 20.0016 13.5793 19.7879 13.3442ZM17.0178 9.95679H20.6554V10.9657H17.0178V9.95679Z" fill="#4196F6"/>
</svg>
