<svg width="29" height="28" viewBox="0 0 29 28" fill="none" xmlns="http://www.w3.org/2000/svg">
<rect x="0.886719" width="28" height="28" rx="14" fill="#2B3042"/>
<path d="M10.7013 11.1493C11.4327 11.1493 12.0257 10.5562 12.0257 9.82464C12.0257 9.09306 11.4327 8.5 10.7013 8.5C9.96989 8.5 9.37695 9.09306 9.37695 9.82464C9.37695 10.5562 9.96989 11.1493 10.7013 11.1493Z" fill="#F6F6F7"/>
<path d="M13.2762 12.1513V19.5004H15.5576V15.8661C15.5576 14.9072 15.7379 13.9785 16.9267 13.9785C18.0991 13.9785 18.1137 15.0749 18.1137 15.9267V19.501H20.3962V15.4708C20.3962 13.4911 19.9701 11.9697 17.6567 11.9697C16.546 11.9697 15.8015 12.5794 15.497 13.1563H15.4662V12.1513H13.2762ZM9.55859 12.1513H11.8435V19.5004H9.55859V12.1513Z" fill="#F6F6F7"/>
</svg>
