<svg width="29" height="28" viewBox="0 0 29 28" fill="none" xmlns="http://www.w3.org/2000/svg">
<rect x="0.886719" width="28" height="28" rx="14" fill="#2B3042"/>
<path d="M11.9714 9.5C12.3996 9.5 12.7904 9.53813 13.1439 9.6136C13.4975 9.68907 13.7993 9.813 14.0512 9.98539C14.303 10.1578 14.4984 10.3866 14.6375 10.6726C14.7765 10.9586 14.8456 11.3113 14.8456 11.7315C14.8456 12.1851 14.7423 12.5633 14.5366 12.866C14.3308 13.1686 14.0258 13.4165 13.623 13.6095C14.1775 13.7692 14.5914 14.0489 14.8647 14.4477C15.1379 14.8465 15.2746 15.3279 15.2746 15.8911C15.2746 16.3447 15.1864 16.738 15.01 17.07C14.8337 17.4021 14.5961 17.673 14.2974 17.8827C13.9987 18.0932 13.6587 18.2482 13.2766 18.3491C12.8921 18.4499 12.4957 18.5008 12.0985 18.5H7.73633V9.5H11.9714ZM11.7195 13.1424C12.0723 13.1424 12.3622 13.0582 12.5894 12.8906C12.8166 12.7222 12.9302 12.4497 12.9295 12.0715C12.9295 11.8618 12.8913 11.6894 12.8158 11.5552C12.7404 11.4209 12.6395 11.3153 12.5132 11.2398C12.3869 11.1643 12.2423 11.1119 12.0786 11.0825C11.9102 11.0531 11.7394 11.038 11.5678 11.0388H9.71602V13.144L11.7195 13.1424ZM11.8332 16.9612C12.0198 16.962 12.2057 16.9429 12.3877 16.9048C12.564 16.8667 12.7197 16.8039 12.854 16.7157C12.9882 16.6275 13.0955 16.5076 13.1757 16.3566C13.2552 16.2057 13.2957 16.0119 13.2957 15.7767C13.2957 15.3152 13.1654 14.9847 12.9048 14.7877C12.6443 14.5899 12.2995 14.4913 11.8713 14.4913H9.71602V16.962L11.8332 16.9612ZM17.7643 16.7721C18.0328 17.0327 18.4197 17.163 18.9241 17.163C19.2856 17.163 19.5962 17.0724 19.8568 16.8921C20.1174 16.7118 20.277 16.5203 20.3358 16.3185H21.9112C21.6593 17.1002 21.2724 17.6587 20.7513 17.9947C20.2302 18.3308 19.6002 18.4992 18.8606 18.4992C18.3482 18.4992 17.8858 18.4174 17.4743 18.2537C17.0628 18.0901 16.7141 17.8565 16.4281 17.5538C16.1421 17.2512 15.9212 16.8905 15.7663 16.4702C15.6114 16.05 15.5336 15.5876 15.5336 15.084C15.5336 14.597 15.613 14.1434 15.7727 13.7231C15.9324 13.3029 16.1596 12.9398 16.4535 12.6332C16.7474 12.3265 17.0986 12.085 17.5061 11.9087C17.9136 11.7323 18.3657 11.6441 18.8614 11.6441C19.4159 11.6441 19.8989 11.7514 20.3112 11.9659C20.7227 12.1804 21.0611 12.468 21.3257 12.8294C21.5902 13.1909 21.7817 13.6024 21.8992 14.0647C22.0168 14.5271 22.0589 15.0101 22.0256 15.5146H17.3242C17.3488 16.0921 17.4958 16.5124 17.7643 16.7721ZM19.7877 13.3442C19.5732 13.1091 19.2475 12.9915 18.8105 12.9915C18.5246 12.9915 18.287 13.0399 18.0987 13.1361C17.9097 13.233 17.7587 13.3521 17.6451 13.4951C17.5315 13.6381 17.4521 13.7891 17.406 13.9488C17.3599 14.1084 17.3321 14.2514 17.3242 14.3769H20.2357C20.1507 13.9241 20.0014 13.5793 19.7877 13.3442ZM17.0175 9.95679H20.6552V10.9657H17.0175V9.95679Z" fill="#F6F6F7"/>
</svg>
