<svg width="24" height="25" viewBox="0 0 24 25" fill="none" xmlns="http://www.w3.org/2000/svg">
    <rect y="0.904785" width="24" height="24" rx="3" fill="#C9D6E5"/>
    <rect x="3" y="3.90479" width="18" height="18" rx="2" fill="#C9D6E5"/>
    <path d="M12.8619 10.7664L9.86231 13.7659C9.86224 13.766 9.86217 13.7661 9.8621 13.7661C9.77785 13.8498 9.71096 13.9492 9.66531 14.0588C9.61962 14.1685 9.59609 14.2861 9.59609 14.4049C9.59609 14.5237 9.61962 14.6414 9.66531 14.751C9.71092 14.8605 9.77773 14.9599 9.86188 15.0435C9.94546 15.1276 10.0448 15.1944 10.1543 15.2401C10.264 15.2857 10.3816 15.3093 10.5004 15.3093C10.6193 15.3093 10.7369 15.2857 10.8466 15.2401C10.9561 15.1944 11.0556 15.1275 11.1392 15.0433C11.1393 15.0432 11.1394 15.0431 11.1394 15.0431L14.139 12.0435C14.3084 11.8741 14.4035 11.6444 14.4035 11.4049C14.4035 11.1654 14.3084 10.9357 14.139 10.7664L14.0329 10.8724L14.139 10.7664C13.9696 10.597 13.74 10.5019 13.5004 10.5019C13.2609 10.5019 13.0312 10.597 12.8619 10.7664Z"
          fill="white" stroke="white" stroke-width="0.3"/>
    <path d="M15.9586 14.286C16.0422 14.3702 16.1416 14.437 16.251 14.4826C16.3607 14.5283 16.4783 14.5518 16.5972 14.5518C16.716 14.5518 16.8336 14.5283 16.9433 14.4826C17.0528 14.4369 17.1523 14.3701 17.2359 14.2858C17.236 14.2857 17.2361 14.2856 17.2362 14.2856L18.3007 13.221L18.3012 13.2205C18.7693 12.748 19.1316 12.1814 19.3642 11.5583C19.5968 10.9352 19.6944 10.2698 19.6504 9.60613C19.6065 8.94248 19.422 8.29574 19.1093 7.70875C18.7966 7.12175 18.3627 6.60791 17.8364 6.20124L17.8364 6.20122L17.8339 6.19939C16.8998 5.50755 15.7457 5.17944 14.5873 5.27633C13.4291 5.3732 12.3458 5.88827 11.5396 6.72536C11.5394 6.72554 11.5393 6.72572 11.5391 6.7259L10.7385 7.54132C10.6335 7.61979 10.5456 7.71879 10.48 7.83234C10.4123 7.94964 10.3699 8.07987 10.3557 8.21458C10.3415 8.34929 10.3557 8.48549 10.3975 8.61436C10.4392 8.74322 10.5075 8.86189 10.5981 8.96267L10.5979 8.96279L10.6032 8.96807C10.6868 9.05242 10.7864 9.11938 10.896 9.16507C11.0057 9.21076 11.1233 9.23428 11.2422 9.23428C11.361 9.23428 11.4786 9.21076 11.5883 9.16507C11.6979 9.11938 11.7975 9.05242 11.8812 8.96807L12.8561 7.98559L12.8561 7.98561L12.8578 7.98387C13.3681 7.45285 14.057 7.12977 14.7915 7.07702C15.5255 7.02431 16.2529 7.24524 16.8335 7.69716C17.1428 7.95048 17.3954 8.26603 17.5747 8.62333C17.7543 8.98115 17.8566 9.37281 17.8747 9.77278C17.8929 10.1727 17.8265 10.5721 17.6801 10.9447C17.5336 11.3173 17.3102 11.6549 17.0246 11.9354L17.0232 11.9367L15.959 13.0084C15.9589 13.0086 15.9587 13.0087 15.9586 13.0089C15.8744 13.0924 15.8076 13.1918 15.762 13.3013C15.7163 13.411 15.6928 13.5286 15.6928 13.6474C15.6928 13.7662 15.7163 13.8839 15.762 13.9936C15.8076 14.103 15.8744 14.2024 15.9586 14.286ZM15.9586 14.286C15.9584 14.2859 15.9583 14.2857 15.9582 14.2856L16.0647 14.1799L15.959 14.2864C15.9589 14.2863 15.9587 14.2861 15.9586 14.286ZM11.144 17.801L11.144 17.8009L11.142 17.803C10.6287 18.3319 9.93876 18.6533 9.20365 18.706C8.46934 18.7586 7.74134 18.5394 7.15821 18.0902C6.85144 17.8369 6.60107 17.5223 6.42321 17.1665C6.24499 16.81 6.14354 16.42 6.12542 16.0218C6.10729 15.6237 6.17288 15.2261 6.31796 14.8549C6.46304 14.4836 6.68437 14.1469 6.96768 13.8666L6.96859 13.8656L8.03279 12.7939C8.03293 12.7938 8.03307 12.7937 8.03321 12.7935C8.11737 12.7099 8.18417 12.6105 8.22979 12.5011C8.27548 12.3914 8.29901 12.2737 8.29901 12.1549C8.29901 12.0361 8.27548 11.9185 8.22979 11.8088C8.18418 11.6993 8.11737 11.5999 8.03322 11.5164C7.94965 11.4322 7.85026 11.3654 7.74078 11.3198C7.6311 11.2741 7.51347 11.2506 7.39466 11.2506C7.27585 11.2506 7.15821 11.2741 7.04854 11.3198C6.93887 11.3655 6.83934 11.4324 6.75568 11.5168C6.75567 11.5168 6.75566 11.5168 6.75566 11.5168L5.80421 12.4757C4.97639 13.2779 4.46757 14.3531 4.3722 15.5019C4.27678 16.6512 4.60164 17.7961 5.28647 18.724L5.28644 18.724L5.28836 18.7265C5.69501 19.2541 6.20926 19.689 6.79694 20.0026C7.38463 20.3161 8.0323 20.501 8.69694 20.5449C9.36158 20.5889 10.028 20.491 10.6518 20.2576C11.2757 20.0242 11.8428 19.6607 12.3154 19.1914L12.3157 19.191L13.3807 18.126C13.5501 17.9566 13.6452 17.7269 13.6452 17.4874C13.6452 17.2479 13.5501 17.0182 13.3807 16.8489C13.2114 16.6795 12.9817 16.5844 12.7422 16.5844C12.5028 16.5844 12.2732 16.6794 12.1038 16.8486C12.1038 16.8487 12.1037 16.8488 12.1036 16.8489L11.144 17.801Z"
          fill="white" stroke="white" stroke-width="0.3"/>
</svg>
