<svg width="153" height="58" fill="none" xmlns="http://www.w3.org/2000/svg"><g clip-path="url(#a)"><path d="m14.81.169 36.722 6.234c3.997.687 6.697 4.475 6.01 8.472l-6.234 36.721c-.686 3.998-4.474 6.697-8.471 6.011L6.13 51.387c-3.997-.685-6.697-4.474-6.01-8.471L6.338 6.18C7.01 2.182 10.814-.517 14.811.169Z" fill="#0F79BE"/><path d="M12.872 5.33h32.157a7.359 7.359 0 0 1 7.353 7.353V44.84a7.358 7.358 0 0 1-7.353 7.353H12.872a7.358 7.358 0 0 1-7.353-7.353V12.683a7.358 7.358 0 0 1 7.353-7.353Z" fill="#252D63"/><path d="M32.53 34.936v-2.58l-1.462-.075-1.074-.074a6.072 6.072 0 0 0-.686-1.596l.329-.403 1.312-1.61-1.864-1.835-1.462 1.178-.418.343-.06.06-.104.09a7.034 7.034 0 0 0-1.461-.612l-.015-.134-.269-2.491-2.476-.03-.223 2.058-.06.552a5.993 5.993 0 0 0-1.626.656l-.104-.09-1.954-1.565-1.85 1.804 1.313 1.596.104.12.164.208.09.105c-.269.447-.477.94-.612 1.447l-.656.074-1.998.209v2.58l1.998.21.656.103c.135.508.343 1 .597 1.447l-.477.597-1.179 1.447 1.85 1.834 1.566-1.267.462-.373c.463.283.97.492 1.507.656l.015.104.253 2.446h2.61l.24-2.207.029-.343a6.188 6.188 0 0 0 1.551-.642l.239.194 1.76 1.417 1.85-1.834-1.298-1.581-.284-.358-.03-.03a5.977 5.977 0 0 0 .686-1.581l2.521-.224Zm-8.561 2.61c-2.148 0-3.938-1.73-3.938-3.892 0-2.163 1.745-3.893 3.938-3.893 2.192 0 3.937 1.73 3.937 3.893 0 2.162-1.76 3.892-3.937 3.892Z" fill="#E6E7E8"/><path d="M23.969 36.413a2.774 2.774 0 1 0 0-5.548 2.774 2.774 0 0 0 0 5.548ZM42.493 23.049V21.02l-1.148-.06-.85-.059a4.676 4.676 0 0 0-.537-1.253l.253-.313 1.03-1.253-1.447-1.432-1.149.925-.328.268-.045.045-.089.075a6.008 6.008 0 0 0-1.148-.478l-.015-.104-.21-1.939-1.938-.03-.164 1.611-.045.433c-.447.119-.88.283-1.283.507l-.09-.075-1.52-1.223-1.447 1.432 1.029 1.253.09.104.134.164.074.09c-.209.358-.373.73-.477 1.133l-.507.06-1.566.164v2.029l1.566.164.507.074c.104.403.268.776.462 1.134l-.373.462-.924 1.134 1.446 1.432 1.223-.985.358-.283c.358.209.761.388 1.179.507l.015.09.208 1.909h2.044l.179-1.716.03-.268c.432-.12.835-.284 1.223-.507l.194.149 1.372 1.104 1.447-1.432-1.015-1.238-.224-.284-.014-.03c.238-.387.417-.79.537-1.237l1.953-.224Zm-6.697 2.043c-1.685 0-3.072-1.357-3.072-3.043 0-1.685 1.372-3.042 3.073-3.042 1.7 0 3.072 1.357 3.072 3.042 0 1.686-1.372 3.043-3.072 3.043Z" fill="#E6E7E8"/><path d="M35.797 24.212a2.163 2.163 0 1 0 0-4.325 2.163 2.163 0 0 0 0 4.325Z" fill="#E6E7E8"/><path d="M80.423 22.08H75.56v10.574h-4.43V22.08h-4.862v-3.221h14.17l-.015 3.221ZM85.941 22.08v2.073h9.01v3.221h-9.01v2.073h9.844v3.222H81.512V18.873h14.273v3.221h-9.844v-.015ZM113.161 18.873v13.796h-4.355l-.074-.09-6.831-8.501v8.591h-4.43V18.873h4.385l.059.074 6.832 8.502v-8.562l4.414-.014ZM132.507 18.873v13.796h-4.43v-6.563l-2.491 5.34-.567 1.208h-2.416l-.567-1.208-2.461-5.31v6.533h-4.43V18.873h4.609l4.072 8.77 4.072-8.77h4.609ZM134.475 32.67V18.872h4.43v13.796h-4.43ZM152.806 32.67h-11.917V18.872h4.43v10.574h7.487v3.222Z" fill="#0F79BE"/><path d="M69.281 38.068c0 .269-.045.448-.15.537-.103.09-.282.135-.55.135H66.88c-.269 0-.448-.045-.552-.135-.105-.09-.15-.268-.15-.537v-1.506c0-.268.046-.447.15-.537.104-.09.283-.134.552-.134h1.7c.343 0 .552.074.627.239.044.089.074.328.074.7l-.656.105v-.537h-1.79v1.805h1.79v-.612l.656.134v.343ZM74.367 38.755h-.611V36.98c0-.06 0-.164.014-.299-.03.075-.089.164-.164.299l-1.073 1.417h-.135l-1.074-1.432a.992.992 0 0 1-.164-.299c.015.12.015.21.015.284v1.79h-.537v-2.85h.537l1.343 1.716 1.312-1.715h.537v2.864ZM79.483 38.755h-.612V36.98c0-.06 0-.164.016-.299-.03.075-.09.164-.165.299l-1.073 1.417h-.135l-1.074-1.432a.99.99 0 0 1-.164-.299c.015.12.015.21.015.284v1.79h-.537v-2.85h.537l1.343 1.716 1.312-1.715h.537v2.864ZM83.973 38.068c0 .269-.045.448-.15.537-.104.09-.283.135-.551.135h-1.76c-.284 0-.478-.045-.567-.15-.09-.104-.134-.298-.134-.596l.581-.12v.344h1.984v-.657h-1.775c-.268 0-.447-.044-.552-.134-.104-.09-.149-.268-.149-.537v-.313c0-.269.045-.448.15-.537.104-.09.283-.134.551-.134h1.626c.268 0 .462.044.552.134.09.09.149.268.149.537l-.582.134v-.328h-1.864v.611h1.775c.268 0 .447.045.551.135.105.09.15.268.15.537v.402h.015ZM90.356 36.398h-2.222v.746h1.193v.522h-1.193v1.089h-.656v-2.85h2.878v.493ZM93.98 38.755h-2.803v-2.85h.656v2.313h2.133v.536h.015ZM97.888 38.755H94.95v-2.85h2.909v.493h-2.253v.641h1.313v.492h-1.313v.702h2.282v.522ZM102.05 38.755h-2.938v-2.85h2.908v.493h-2.237v.641h1.312v.492h-1.312v.702h2.282v.522h-.015ZM105.913 36.413H104.6v2.342h-.656v-2.342h-1.313v-.507h3.282v.507ZM112.58 38.755h-.612V36.98c0-.06 0-.164.015-.299-.03.075-.089.164-.164.299l-1.074 1.417h-.134l-1.074-1.432a1.007 1.007 0 0 1-.164-.299 2.1 2.1 0 0 1 .015.284v1.79h-.537v-2.85h.537l1.342 1.716 1.313-1.715h.537v2.864ZM117.308 38.755h-.746l-.343-.627h-1.805l-.328.627h-.656l1.611-2.85h.641l1.626 2.85Zm-1.357-1.149-.612-1.163-.641 1.163h1.253ZM121.574 38.755h-.448l-2.088-1.76a1.858 1.858 0 0 1-.239-.24c.015.18.03.329.03.433v1.552h-.596v-2.85h.447l1.999 1.671c.149.12.253.224.328.313-.015-.268-.03-.432-.03-.492v-1.491h.597v2.864ZM126.361 38.755h-.745l-.343-.627h-1.805l-.328.627h-.656l1.61-2.85h.642l1.625 2.85Zm-1.357-1.149-.611-1.148-.642 1.163h1.253v-.015ZM130.493 38.068c0 .269-.045.448-.149.537-.105.09-.284.135-.552.135h-1.969c-.268 0-.447-.045-.552-.135-.104-.09-.149-.268-.149-.537v-1.506c0-.268.045-.447.149-.537.105-.09.284-.134.552-.134h1.969c.283 0 .477.045.567.149.089.104.134.283.134.567l-.641.12v-.314h-2.074v1.805h2.074v-.642h-1.089v-.492h1.73v.984ZM134.833 38.755h-2.938v-2.85h2.908v.493h-2.252v.641h1.313v.492h-1.313v.702h2.282v.522ZM139.77 38.755h-.611V36.98c0-.06 0-.164.015-.299-.03.075-.09.164-.164.299l-1.074 1.417h-.12l-1.074-1.432a1.007 1.007 0 0 1-.164-.299c.015.12.015.21.015.284v1.79h-.537v-2.85h.537l1.343 1.716 1.312-1.715h.537v2.864h-.015ZM144.111 38.755h-2.939v-2.85h2.909v.493h-2.252v.641h1.312v.492h-1.312v.702h2.282v.522ZM148.69 38.755h-.448l-2.088-1.76a1.796 1.796 0 0 1-.239-.24c.015.18.03.329.03.433v1.552h-.596v-2.85h.447l1.999 1.671c.149.12.253.224.328.313-.015-.268-.03-.432-.03-.492v-1.491h.597v2.864ZM152.776 36.413h-1.312v2.342h-.656v-2.342h-1.313v-.507h3.281v.507Z" fill="#fff"/></g><defs><clipPath id="a"><path fill="#fff" transform="translate(0 .065)" d="M0 0h153v57.871H0z"/></clipPath></defs></svg>