<svg xmlns="http://www.w3.org/2000/svg" fill="none" viewBox="28.7 0 89 88">
<path d="M56.0015 24.3C45.0802 34 43.9881 50.7 53.6187 61.7C63.15 72.7 79.8297 73.8 90.6517 64.1C101.573 54.5 102.665 37.7 93.0346 26.8C83.5033 15.8 66.9228 14.7 56.0015 24.3ZM86.4818 59.3C78.2412 66.6 65.6321 65.8 58.3843 57.5C51.1365 49.2 51.9308 36.5 60.2707 29.2C68.5113 21.9 81.1205 22.7 88.3682 31C95.616 39.3 94.7224 52 86.4818 59.3Z" fill="#0F79BE"/>
<path d="M117.558 48.1C117.657 46.4 117.756 44.6 117.657 42.8C117.657 41.1 117.458 39.4 117.161 37.7L108.324 36.2L105.346 27.8L111.204 21C109.416 18 107.331 15.3 104.949 12.8L97.0058 16.8L89.6588 11.8L90.453 2.79999C87.3752 1.49999 84.1981 0.5 80.9217 0L76.7518 8L67.9155 8.19998L63.3484 0.5C59.9727 1.3 56.6963 2.39999 53.6185 3.89999L54.9092 12.8L47.86 18.2L39.7187 14.6C37.4352 17.2 35.5487 20 33.8609 23.1L40.1158 29.5L37.6337 38L28.8967 40C28.6981 41.8 28.6981 43.6 28.6981 45.4C28.7974 47.1 28.8967 48.7 29.0953 50.3L37.9316 51.8L40.9101 60.2L35.0523 66.9C36.8394 69.9 38.9244 72.6 41.3072 75.1L49.25 71.1L56.4978 76.1L55.7035 85.1C58.8806 86.4 62.157 87.4 65.5327 88L69.6033 80L78.4396 79.8L83.0067 87.5C86.3824 86.7 89.6588 85.5 92.7366 84L91.4459 75.1L98.4951 69.7L106.736 73.2C109.019 70.6 110.906 67.7 112.494 64.7L106.239 58.3L108.721 49.7L117.558 48.1ZM92.538 66.3C80.4253 77 62.0577 75.8 51.4343 63.6C40.8108 51.4 42.0022 32.9 54.1149 22.2C66.2276 11.5 84.5953 12.7 95.2187 24.9C105.842 37 104.651 55.6 92.538 66.3Z" fill="#0F79BE"/>
</svg>