<svg xmlns="http://www.w3.org/2000/svg" fill="none" viewBox="87.68 65.62 69.96 69.79">
<path d="M111.755 83.155C102.089 89.3346 99.2068 102.137 105.35 111.833C111.417 121.518 124.243 124.407 133.832 118.215C143.486 112.113 146.38 99.2334 140.225 89.6143C134.158 79.9298 121.41 77.0528 111.755 83.155ZM131.176 113.988C123.885 118.636 114.185 116.476 109.564 109.162C104.944 101.848 107.107 92.1077 114.476 87.4718C121.767 82.8238 131.467 84.9834 136.088 92.2976C140.708 99.6118 138.468 109.34 131.176 113.988Z" fill="#FFC74B"/>
<path d="M156.685 109.11C156.969 107.805 157.266 106.423 157.408 105.016C157.615 103.7 157.667 102.359 157.643 101.005L150.96 98.7645L149.668 91.8942L155.048 87.3425C154.024 84.8005 152.733 82.4545 151.186 80.227L144.528 82.3553L139.428 77.5851L141.141 70.7109C138.908 69.328 136.561 68.1654 134.076 67.378L129.862 73.0654L122.972 72.1411L120.361 65.6191C117.641 65.8265 114.961 66.2784 112.387 67.0644L112.307 74.1158L106.172 77.4376L100.285 73.6548C98.1938 75.3898 96.3872 77.3283 94.6984 79.5233L98.7791 85.2446L95.8157 91.5254L88.7837 92.0075C88.4103 93.3775 88.1911 94.7717 87.972 96.166C87.8421 97.4949 87.7245 98.7463 87.6839 100.01L94.3669 102.251L95.6585 109.121L90.2914 113.595C91.3147 116.137 92.6059 118.483 94.1529 120.711L100.811 118.583L105.834 123.341L104.121 130.215C106.431 131.61 108.855 132.785 111.405 133.662L115.542 127.962L122.432 128.886L125.043 135.408C127.763 135.201 130.455 134.672 133.029 133.886L133.109 126.834L139.244 123.512L145.221 127.23C147.311 125.495 149.13 123.479 150.73 121.349L146.649 115.628L149.625 109.27L156.685 109.11ZM135.029 120.151C124.315 126.96 110.19 123.787 103.422 113.04C96.6527 102.293 99.8309 88.1085 110.545 81.2998C121.259 74.4911 135.384 77.6638 142.153 88.4111C148.934 99.081 145.744 113.343 135.029 120.151Z" fill="#FFC74B"/>
</svg>