<svg xmlns="http://www.w3.org/2000/svg" fill="none" viewBox="8.05 72.55 52.1 52.73">
<path d="M28.8213 84.3724C20.6798 87.3502 16.4892 96.308 19.4714 104.447C22.3985 112.565 31.4168 116.779 39.5032 113.78C47.6233 110.857 51.8353 101.844 48.8317 93.7597C45.9046 85.6419 36.9414 81.4496 28.8213 84.3724ZM38.2199 110.235C32.0809 112.471 25.2567 109.303 23.017 103.166C20.7774 97.0286 23.9441 90.2085 30.1382 87.9935C36.2773 85.7572 43.1014 88.9252 45.3411 95.0625C47.5808 101.2 44.359 107.998 38.2199 110.235Z" fill="#C9CBD8"/>
<path d="M57.8662 110.791C58.2862 109.876 58.7277 108.907 59.0589 107.894C59.4238 106.958 59.6786 105.979 59.8782 104.979L55.2976 102.242L55.448 96.9728L60.1577 94.4963C59.8101 92.458 59.2329 90.5205 58.4474 88.6287L53.182 89.1127L50.1789 84.7707L52.5514 79.9876C51.1228 78.6061 49.5747 77.3683 47.8642 76.3843L43.8334 79.8866L38.8878 78.0853L38.0067 72.8582C35.962 72.5684 33.9081 72.4652 31.8785 72.6253L30.6842 77.8043L25.614 79.2524L21.8697 75.5093C20.0447 76.4468 18.397 77.5802 16.7951 78.9218L18.8918 83.7983L15.6901 87.941L10.4133 87.1521C9.91676 88.1002 9.5304 89.0912 9.14403 90.0821C8.83421 91.0395 8.54586 91.9419 8.3126 92.8657L12.8933 95.603L12.7428 100.872L8.05458 103.293C8.40218 105.332 8.97942 107.269 9.76486 109.161L15.0303 108.677L17.9783 112.997L15.6058 117.781C17.0895 119.183 18.6927 120.443 20.4368 121.503L24.4125 117.98L29.3581 119.781L30.2392 125.008C32.2839 125.298 34.3593 125.346 36.3889 125.186L37.5832 120.007L42.6533 118.559L46.4742 122.268C48.2993 121.331 49.9684 120.142 51.4937 118.834L49.397 113.958L52.6201 109.76L57.8662 110.791ZM40.078 115.398C31.0608 118.669 21.1275 114.035 17.8521 105.02C14.5766 96.0056 19.2086 86.0782 28.2258 82.8076C37.243 79.537 47.1763 84.1709 50.4518 93.1856C53.7487 102.145 49.0952 112.128 40.078 115.398Z" fill="#C9CBD8"/>
</svg>