<svg width="20" height="20" viewBox="0 0 20 20" fill="none" xmlns="http://www.w3.org/2000/svg">
    <g id="vuesax/linear/copy-success">
        <g id="copy-success">
            <path id="Vector"
                  d="M18.3334 9.24935V5.74935C18.3334 2.83268 17.1667 1.66602 14.2501 1.66602H10.7501C7.83341 1.66602 6.66675 2.83268 6.66675 5.74935V6.66602H9.25008C12.1667 6.66602 13.3334 7.83268 13.3334 10.7493V13.3327H14.2501C17.1667 13.3327 18.3334 12.166 18.3334 9.24935Z"
                  stroke="#1F83F4" stroke-width="1.25" stroke-linecap="round" stroke-linejoin="round"/>
            <path id="Vector_2"
                  d="M13.3334 14.2493V10.7493C13.3334 7.83268 12.1667 6.66602 9.25008 6.66602H5.75008C2.83341 6.66602 1.66675 7.83268 1.66675 10.7493V14.2493C1.66675 17.166 2.83341 18.3327 5.75008 18.3327H9.25008C12.1667 18.3327 13.3334 17.166 13.3334 14.2493Z"
                  stroke="#1F83F4" stroke-width="1.25" stroke-linecap="round" stroke-linejoin="round"/>
            <path id="Vector_3" d="M5.06665 12.5L6.69165 14.125L9.93332 10.875" stroke="#1F83F4" stroke-width="1.25"
                  stroke-linecap="round" stroke-linejoin="round"/>
        </g>
    </g>
</svg>
