<svg width="17" height="18" viewBox="0 0 17 18" fill="none" xmlns="http://www.w3.org/2000/svg">
    <g id="vuesax/linear/copy">
        <g id="copy">
            <path id="Vector"
                  d="M11.4444 9.45161V12.3683C11.4444 14.7988 10.4722 15.7711 8.04161 15.7711H5.12495C2.69439 15.7711 1.72217 14.7988 1.72217 12.3683V9.45161C1.72217 7.02105 2.69439 6.04883 5.12495 6.04883H8.04161C10.4722 6.04883 11.4444 7.02105 11.4444 9.45161Z"
                  stroke="#1F83F4" stroke-width="1.04167" stroke-linecap="round" stroke-linejoin="round"/>
            <path id="Vector_2"
                  d="M15.6111 5.28559V8.20226C15.6111 10.6328 14.6389 11.605 12.2084 11.605H11.4445V9.45226C11.4445 7.0217 10.4722 6.04948 8.04169 6.04948H5.88892V5.28559C5.88892 2.85503 6.86114 1.88281 9.29169 1.88281H12.2084C14.6389 1.88281 15.6111 2.85503 15.6111 5.28559Z"
                  stroke="#1F83F4" stroke-width="1.04167" stroke-linecap="round" stroke-linejoin="round"/>
        </g>
    </g>
</svg>
