<svg width="20" height="20" viewBox="0 0 20 20" fill="none" xmlns="http://www.w3.org/2000/svg">
    <path d="M18.3334 18.3327L16.6667 16.666M9.58341 17.4993C10.623 17.4993 11.6525 17.2946 12.613 16.8967C13.5735 16.4989 14.4462 15.9157 15.1813 15.1806C15.9165 14.4455 16.4996 13.5728 16.8975 12.6123C17.2953 11.6518 17.5001 10.6223 17.5001 9.58268C17.5001 8.54305 17.2953 7.5136 16.8975 6.5531C16.4996 5.59261 15.9165 4.71988 15.1813 3.98475C14.4462 3.24962 13.5735 2.66649 12.613 2.26864C11.6525 1.87079 10.623 1.66602 9.58341 1.66602C7.48378 1.66602 5.47015 2.50009 3.98549 3.98475C2.50082 5.46942 1.66675 7.48305 1.66675 9.58268C1.66675 11.6823 2.50082 13.6959 3.98549 15.1806C5.47015 16.6653 7.48378 17.4993 9.58341 17.4993Z"
          stroke="#98A1B0" stroke-width="1.25" stroke-linecap="round" stroke-linejoin="round"/>
</svg>
