<svg width="1192" height="583" viewBox="0 0 1192 583" fill="none" xmlns="http://www.w3.org/2000/svg">
<rect x="0.5" y="0.5" width="1191" height="582" rx="4.5" fill="#EBF1F7" stroke="#EBF1F7"/>
<path d="M500 233.483C500 223.277 504.054 213.488 511.271 206.271C518.488 199.054 528.277 195 538.483 195H653.932C664.138 195 673.926 199.054 681.143 206.271C688.36 213.488 692.414 223.277 692.414 233.483V348.932C692.414 359.138 688.36 368.926 681.143 376.143C673.926 383.36 664.138 387.414 653.932 387.414H538.483C528.277 387.414 518.488 383.36 511.271 376.143C504.054 368.926 500 359.138 500 348.932V233.483Z" stroke="#35ACFE" stroke-width="2" stroke-linecap="round" stroke-linejoin="round"/>
<path d="M562.54 281.594C575.824 281.594 586.592 270.825 586.592 257.542C586.592 244.258 575.824 233.49 562.54 233.49C549.257 233.49 538.488 244.258 538.488 257.542C538.488 270.825 549.257 281.594 562.54 281.594Z" stroke="#35ACFE" stroke-width="2" stroke-linecap="round" stroke-linejoin="round"/>
<path d="M657 387.5H538.5L617.214 306.339C627.617 295.613 644.059 293.514 656.823 301.284L692.5 323" stroke="#35ACFE" stroke-width="2"/>
</svg>
