<svg width="195" height="195" viewBox="0 0 195 195" fill="none" xmlns="http://www.w3.org/2000/svg">
    <path d="M1 39.4829C1 29.2766 5.05444 19.4883 12.2714 12.2714C19.4883 5.05444 29.2766 1 39.4829 1H154.932C165.138 1 174.926 5.05444 182.143 12.2714C189.36 19.4883 193.414 29.2766 193.414 39.4829V154.932C193.414 165.138 189.36 174.926 182.143 182.143C174.926 189.36 165.138 193.414 154.932 193.414H39.4829C29.2766 193.414 19.4883 189.36 12.2714 182.143C5.05444 174.926 1 165.138 1 154.932V39.4829Z"
          stroke="#35ACFE" stroke-width="2" stroke-linecap="round" stroke-linejoin="round"/>
    <path d="M63.5401 87.5936C76.8235 87.5936 87.5919 76.8253 87.5919 63.5418C87.5919 50.2584 76.8235 39.49 63.5401 39.49C50.2566 39.49 39.4883 50.2584 39.4883 63.5418C39.4883 76.8253 50.2566 87.5936 63.5401 87.5936Z"
          stroke="#35ACFE" stroke-width="2" stroke-linecap="round" stroke-linejoin="round"/>
    <path d="M158 193.5H39.5L118.214 112.339C128.617 101.613 145.059 99.514 157.823 107.284L193.5 129" stroke="#35ACFE"
          stroke-width="2"/>
</svg>
