<svg width="133" height="132" viewBox="0 0 133 132" fill="none" xmlns="http://www.w3.org/2000/svg">
    <circle cx="62.9375" cy="62.9375" r="61.4375" stroke="#BDBEC2" stroke-width="3" stroke-dasharray="8 8"/>
    <path d="M121.197 108.146C118.483 105.547 115.842 102.873 113.277 100.127C111.121 97.9374 109.823 96.3441 109.823 96.3441L93.5994 88.5981C100.095 81.2323 103.679 71.7502 103.681 61.9302C103.681 39.5727 85.4875 21.375 63.1219 21.375C40.7563 21.375 22.5625 39.5727 22.5625 61.9302C22.5625 84.2876 40.7563 102.485 63.1219 102.485C73.3371 102.485 82.6484 98.6616 89.7926 92.4103L97.5395 108.632C97.5395 108.632 99.1329 109.93 101.323 112.085C103.565 114.188 106.515 117.033 109.342 120.005L117.211 128.07L120.71 131.812L133 119.524L129.257 116.025C127.061 113.87 124.129 111.008 121.197 108.146ZM63.1219 90.8981C47.1473 90.8981 34.1509 77.9031 34.1509 61.9302C34.1509 45.9572 47.1473 32.9622 63.1219 32.9622C79.0965 32.9622 92.0929 45.9572 92.0929 61.9302C92.0929 77.9031 79.0965 90.8981 63.1219 90.8981Z"
          fill="#BDBEC2"/>
    <path fill-rule="evenodd" clip-rule="evenodd" d="M61.1809 68.4036H66.7248L68.9531 45.9375H58.9531L61.1809 68.4036Z"
          fill="#BDBEC2"/>
    <path d="M63.9472 79.2722C66.2987 79.2722 68.205 77.3704 68.205 75.0244C68.205 72.6784 66.2987 70.7766 63.9472 70.7766C61.5957 70.7766 59.6895 72.6784 59.6895 75.0244C59.6895 77.3704 61.5957 79.2722 63.9472 79.2722Z"
          fill="#BDBEC2"/>
</svg>
