<svg width="48" height="48" viewBox="0 0 48 48" fill="none" xmlns="http://www.w3.org/2000/svg">
<g id="mission" clip-path="url(#clip0_1327_16775)">
<path id="Vector" d="M24 47.25C36.8406 47.25 47.25 36.8406 47.25 24C47.25 11.1594 36.8406 0.75 24 0.75C11.1594 0.75 0.75 11.1594 0.75 24C0.75 36.8406 11.1594 47.25 24 47.25Z" stroke="#1F83F4" stroke-width="2"/>
<path id="Vector_2" d="M24 47.25C36.8406 47.25 47.25 36.8406 47.25 24C47.25 11.1594 36.8406 0.75 24 0.75C11.1594 0.75 0.75 11.1594 0.75 24C0.75 36.8406 11.1594 47.25 24 47.25Z" stroke="#1F83F4" stroke-width="2"/>
<path id="Vector_3" d="M24 47.25C36.8406 47.25 47.25 36.8406 47.25 24C47.25 11.1594 36.8406 0.75 24 0.75C11.1594 0.75 0.75 11.1594 0.75 24C0.75 36.8406 11.1594 47.25 24 47.25Z" stroke="#1F83F4" stroke-width="2"/>
<path id="Vector_4" d="M24 38.25C31.8701 38.25 38.25 31.8701 38.25 24C38.25 16.1299 31.8701 9.75 24 9.75C16.1299 9.75 9.75 16.1299 9.75 24C9.75 31.8701 16.1299 38.25 24 38.25Z" stroke="#1F83F4" stroke-width="2" stroke-dasharray="4 4"/>
<path id="Vector_5" d="M24 38.25C31.8701 38.25 38.25 31.8701 38.25 24C38.25 16.1299 31.8701 9.75 24 9.75C16.1299 9.75 9.75 16.1299 9.75 24C9.75 31.8701 16.1299 38.25 24 38.25Z" stroke="#1F83F4" stroke-width="2" stroke-dasharray="4 4"/>
<path id="Vector_6" d="M24 38.25C31.8701 38.25 38.25 31.8701 38.25 24C38.25 16.1299 31.8701 9.75 24 9.75C16.1299 9.75 9.75 16.1299 9.75 24C9.75 31.8701 16.1299 38.25 24 38.25Z" stroke="#1F83F4" stroke-width="2" stroke-dasharray="4 4"/>
<path id="Vector_7" d="M24 29.25C26.8995 29.25 29.25 26.8995 29.25 24C29.25 21.1005 26.8995 18.75 24 18.75C21.1005 18.75 18.75 21.1005 18.75 24C18.75 26.8995 21.1005 29.25 24 29.25Z" stroke="#1F83F4" stroke-width="2"/>
<path id="Vector_8" d="M24 29.25C26.8995 29.25 29.25 26.8995 29.25 24C29.25 21.1005 26.8995 18.75 24 18.75C21.1005 18.75 18.75 21.1005 18.75 24C18.75 26.8995 21.1005 29.25 24 29.25Z" stroke="#1F83F4" stroke-width="2"/>
<path id="Vector_9" d="M24 29.25C26.8995 29.25 29.25 26.8995 29.25 24C29.25 21.1005 26.8995 18.75 24 18.75C21.1005 18.75 18.75 21.1005 18.75 24C18.75 26.8995 21.1005 29.25 24 29.25Z" stroke="#1F83F4" stroke-width="2"/>
</g>
<defs>
<clipPath id="clip0_1327_16775">
<rect width="48" height="48" fill="white"/>
</clipPath>
</defs>
</svg>
