<svg width="48" height="48" viewBox="0 0 48 48" fill="none" xmlns="http://www.w3.org/2000/svg">
<g id="vision" clip-path="url(#clip0_1327_16790)">
<path id="Vector" d="M1.07921 24.1834C1.02779 24.1174 0.980448 24.0563 0.937256 24C0.980448 23.9437 1.02779 23.8825 1.07921 23.8165C1.39209 23.4151 1.85562 22.839 2.45375 22.1465C3.65088 20.7603 5.38247 18.913 7.51966 17.0677C11.8174 13.3569 17.6443 9.75 24.0001 9.75C30.3559 9.75 36.1828 13.3569 40.4805 17.0677C42.6177 18.913 44.3493 20.7603 45.5465 22.1465C46.1446 22.839 46.6081 23.4151 46.921 23.8165C46.9724 23.8825 47.0198 23.9437 47.0629 24C47.0198 24.0563 46.9724 24.1174 46.921 24.1834C46.6081 24.5848 46.1446 25.161 45.5465 25.8536C44.3493 27.2397 42.6177 29.087 40.4805 30.9323C36.1828 34.6431 30.3559 38.25 24.0001 38.25C17.6443 38.25 11.8174 34.6431 7.51966 30.9323C5.38247 29.087 3.65088 27.2397 2.45375 25.8536C1.85562 25.161 1.39209 24.5848 1.07921 24.1834Z" stroke="#1F83F4" stroke-width="2"/>
<path id="Vector_2" d="M1.07921 24.1834C1.02779 24.1174 0.980448 24.0563 0.937256 24C0.980448 23.9437 1.02779 23.8825 1.07921 23.8165C1.39209 23.4151 1.85562 22.839 2.45375 22.1465C3.65088 20.7603 5.38247 18.913 7.51966 17.0677C11.8174 13.3569 17.6443 9.75 24.0001 9.75C30.3559 9.75 36.1828 13.3569 40.4805 17.0677C42.6177 18.913 44.3493 20.7603 45.5465 22.1465C46.1446 22.839 46.6081 23.4151 46.921 23.8165C46.9724 23.8825 47.0198 23.9437 47.0629 24C47.0198 24.0563 46.9724 24.1174 46.921 24.1834C46.6081 24.5848 46.1446 25.161 45.5465 25.8536C44.3493 27.2397 42.6177 29.087 40.4805 30.9323C36.1828 34.6431 30.3559 38.25 24.0001 38.25C17.6443 38.25 11.8174 34.6431 7.51966 30.9323C5.38247 29.087 3.65088 27.2397 2.45375 25.8536C1.85562 25.161 1.39209 24.5848 1.07921 24.1834Z" stroke="#1F83F4" stroke-width="2"/>
<path id="Vector_3" d="M1.07921 24.1834C1.02779 24.1174 0.980448 24.0563 0.937256 24C0.980448 23.9437 1.02779 23.8825 1.07921 23.8165C1.39209 23.4151 1.85562 22.839 2.45375 22.1465C3.65088 20.7603 5.38247 18.913 7.51966 17.0677C11.8174 13.3569 17.6443 9.75 24.0001 9.75C30.3559 9.75 36.1828 13.3569 40.4805 17.0677C42.6177 18.913 44.3493 20.7603 45.5465 22.1465C46.1446 22.839 46.6081 23.4151 46.921 23.8165C46.9724 23.8825 47.0198 23.9437 47.0629 24C47.0198 24.0563 46.9724 24.1174 46.921 24.1834C46.6081 24.5848 46.1446 25.161 45.5465 25.8536C44.3493 27.2397 42.6177 29.087 40.4805 30.9323C36.1828 34.6431 30.3559 38.25 24.0001 38.25C17.6443 38.25 11.8174 34.6431 7.51966 30.9323C5.38247 29.087 3.65088 27.2397 2.45375 25.8536C1.85562 25.161 1.39209 24.5848 1.07921 24.1834Z" stroke="#1F83F4" stroke-width="2"/>
<path id="Vector_4" d="M24 30C27.3137 30 30 27.3137 30 24C30 20.6863 27.3137 18 24 18C20.6863 18 18 20.6863 18 24C18 27.3137 20.6863 30 24 30Z" stroke="#1F83F4" stroke-width="2" stroke-dasharray="4 4"/>
<path id="Vector_5" d="M24 30C27.3137 30 30 27.3137 30 24C30 20.6863 27.3137 18 24 18C20.6863 18 18 20.6863 18 24C18 27.3137 20.6863 30 24 30Z" stroke="#1F83F4" stroke-width="2" stroke-dasharray="4 4"/>
<path id="Vector_6" d="M24 30C27.3137 30 30 27.3137 30 24C30 20.6863 27.3137 18 24 18C20.6863 18 18 20.6863 18 24C18 27.3137 20.6863 30 24 30Z" stroke="#1F83F4" stroke-width="2" stroke-dasharray="4 4"/>
<path id="Vector_7" d="M40.4403 40.4395C36.0801 44.7997 30.1663 47.2492 24 47.2492C17.8338 47.2492 11.92 44.7997 7.55981 40.4395" stroke="#1F83F4" stroke-width="2"/>
<path id="Vector_8" d="M40.4403 40.4395C36.0801 44.7997 30.1663 47.2492 24 47.2492C17.8338 47.2492 11.92 44.7997 7.55981 40.4395" stroke="#1F83F4" stroke-width="2"/>
<path id="Vector_9" d="M40.4403 40.4395C36.0801 44.7997 30.1663 47.2492 24 47.2492C17.8338 47.2492 11.92 44.7997 7.55981 40.4395" stroke="#1F83F4" stroke-width="2"/>
<path id="Vector_10" d="M40.4403 7.55978C36.0801 3.19955 30.1663 0.75 24 0.75C17.8338 0.75 11.92 3.19955 7.55981 7.55978" stroke="#1F83F4" stroke-width="2"/>
<path id="Vector_11" d="M40.4403 7.55978C36.0801 3.19955 30.1663 0.75 24 0.75C17.8338 0.75 11.92 3.19955 7.55981 7.55978" stroke="#1F83F4" stroke-width="2"/>
<path id="Vector_12" d="M40.4403 7.55978C36.0801 3.19955 30.1663 0.75 24 0.75C17.8338 0.75 11.92 3.19955 7.55981 7.55978" stroke="#1F83F4" stroke-width="2"/>
</g>
<defs>
<clipPath id="clip0_1327_16790">
<rect width="48" height="48" fill="white"/>
</clipPath>
</defs>
</svg>
