<svg width="24" height="25" viewBox="0 0 24 25" fill="none" xmlns="http://www.w3.org/2000/svg">
<path d="M8.29352 7.54094C8.29332 7.94166 8.13393 8.32588 7.85042 8.60908C7.56691 8.89229 7.18249 9.05128 6.78175 9.05108C6.381 9.05088 5.99675 8.8915 5.71352 8.60801C5.43029 8.32453 5.27128 7.94015 5.27148 7.53943C5.27168 7.13872 5.43107 6.7545 5.71459 6.47129C5.9981 6.18809 6.38251 6.0291 6.78326 6.0293C7.184 6.0295 7.56826 6.18887 7.85149 6.47236C8.13472 6.75585 8.29372 7.14023 8.29352 7.54094ZM8.33885 10.1699H5.31682V19.6281H8.33885V10.1699ZM13.1137 10.1699H10.1067V19.6281H13.0834V14.6648C13.0834 11.8999 16.6872 11.643 16.6872 14.6648V19.6281H19.6715V13.6374C19.6715 8.97629 14.3376 9.15004 13.0834 11.439L13.1137 10.1699Z" fill="#1F83F4"/>
</svg>
