<svg width="25" height="30" viewBox="0 0 25 30" fill="none" xmlns="http://www.w3.org/2000/svg">
    <path d="M15.0346 15.6816H11.0801V22.3407H15.0346V15.6816Z" stroke="#39AAF8" stroke-miterlimit="10"/>
    <path d="M18.9877 12.8638H15.0332V22.341H18.9877V12.8638Z" stroke="#39AAF8" stroke-miterlimit="10"/>
    <path d="M22.9428 9.45459H18.9883V22.341H22.9428V9.45459Z" stroke="#39AAF8" stroke-miterlimit="10"/>
    <path d="M9.22745 14.1702C11.1102 14.1702 12.6365 12.6439 12.6365 10.7611C12.6365 8.87835 11.1102 7.35205 9.22745 7.35205C7.34466 7.35205 5.81836 8.87835 5.81836 10.7611C5.81836 12.6439 7.34466 14.1702 9.22745 14.1702Z"
          fill="white" stroke="#39AAF8" stroke-miterlimit="10"/>
    <path d="M8.03338 16.6592H10.4084C11.1545 16.6592 11.8934 16.8061 12.5827 17.0917C13.2721 17.3772 13.8984 17.7957 14.426 18.3233C14.9536 18.851 15.3722 19.4773 15.6577 20.1667C15.9432 20.856 16.0902 21.5949 16.0902 22.341H2.35156C2.35156 20.8341 2.95018 19.3889 4.01573 18.3233C5.08128 17.2578 6.52647 16.6592 8.03338 16.6592Z"
          fill="white" stroke="#39AAF8" stroke-miterlimit="10"/>
</svg>
