<svg width="22" height="28" viewBox="0 0 22 28" fill="none" xmlns="http://www.w3.org/2000/svg">
    <path d="M16.4805 0.958008H1.16797V26.2601H20.8346V4.90592L16.4805 0.958008Z" stroke="#39AAF8" stroke-width="0.875"
          stroke-miterlimit="10"/>
    <path d="M16.4785 1.03125V4.90625H20.8327L16.4785 1.03125Z" fill="#39AAF8" stroke="#39AAF8" stroke-width="0.875"
          stroke-linecap="round" stroke-linejoin="round"/>
    <path d="M10.9993 9.05143C12.1154 9.05143 13.0202 8.14667 13.0202 7.0306C13.0202 5.91452 12.1154 5.00977 10.9993 5.00977C9.88327 5.00977 8.97852 5.91452 8.97852 7.0306C8.97852 8.14667 9.88327 9.05143 10.9993 9.05143Z"
          stroke="#39AAF8" stroke-width="0.875" stroke-miterlimit="10"/>
    <path d="M9.4375 10.8125H12.5625C13.5665 10.8124 14.5299 11.2084 15.2437 11.9144C15.9575 12.6204 16.364 13.5794 16.375 14.5833H5.625C5.63597 13.5794 6.04248 12.6204 6.75628 11.9144C7.47008 11.2084 8.43354 10.8124 9.4375 10.8125Z"
          stroke="#39AAF8" stroke-width="0.875" stroke-miterlimit="10"/>
    <path d="M8.57349 23.3433C8.23557 23.3485 7.90007 23.2857 7.58691 23.1586C7.27375 23.0316 6.98933 22.8429 6.75057 22.6037C6.27093 22.1182 6.00195 21.4632 6.00195 20.7808C6.00195 20.0983 6.27093 19.4433 6.75057 18.9579C6.98933 18.7187 7.27375 18.53 7.58691 18.4029C7.90007 18.2758 8.23557 18.2131 8.57349 18.2183C9.03579 18.2089 9.49116 18.3318 9.88599 18.5724C10.2704 18.798 10.5842 19.1262 10.7922 19.5204H10.261C10.0785 19.2543 9.8311 19.0391 9.54224 18.8954C9.24175 18.7441 8.9099 18.6656 8.57349 18.6662C8.01266 18.6662 7.47481 18.889 7.07825 19.2855C6.68169 19.6821 6.4589 20.22 6.4589 20.7808C6.4589 21.3416 6.68169 21.8794 7.07825 22.276C7.47481 22.6726 8.01266 22.8954 8.57349 22.8954C8.90581 22.8999 9.2344 22.8249 9.53182 22.6766C9.81711 22.5279 10.0661 22.318 10.261 22.062H10.7818C10.5729 22.4501 10.2588 22.7714 9.87557 22.9891C9.48329 23.2268 9.03212 23.3495 8.57349 23.3433Z"
          fill="#39AAF8" stroke="#39AAF8" stroke-width="0.21875" stroke-linecap="round" stroke-linejoin="round"/>
    <path d="M13.9382 23.2917H13.4798L11.3965 18.2812H11.9069L13.6777 22.6354L15.4694 18.2812H15.9694L13.9382 23.2917Z"
          fill="#39AAF8" stroke="#39AAF8" stroke-width="0.21875" stroke-linecap="round" stroke-linejoin="round"/>
</svg>
