<?xml version="1.0" encoding="utf-8"?>
<!-- Svg Vector Icons : http://www.onlinewebfonts.com/icon -->
<!DOCTYPE svg PUBLIC "-//W3C//DTD SVG 1.1//EN" "http://www.w3.org/Graphics/SVG/1.1/DTD/svg11.dtd">
<svg version="1.1" xmlns="http://www.w3.org/2000/svg" xmlns:xlink="http://www.w3.org/1999/xlink" x="0px" y="0px" viewBox="0 0 256 256" enable-background="new 0 0 256 256" xml:space="preserve">
<metadata> Svg Vector Icons : http://www.onlinewebfonts.com/icon </metadata>
<g><g><g><path fill="#000000" d="M33.8,8.1c-11,2.9-20,11.9-22.9,23c-1,3.8-1.1,11.7-0.2,15.3C13.5,58,23.6,67.9,35.3,70.4c10.5,2.3,21.7-1.1,29.4-8.8C80.2,46,75.9,19.9,56.2,10.5c-2.7-1.3-6-2.6-7.5-2.9C44.6,6.8,38.1,7,33.8,8.1z M48.8,13c8.8,2.3,16,9.2,19,18.2c1.4,4.2,1.3,12-0.3,16.4C61.1,66,38.5,72,24,59c-3.5-3.1-6.4-7.6-7.7-11.9c-1.4-4.6-1.4-11.4,0-16c2.7-8.5,10.1-15.7,18.9-18.1C38.5,12,45.2,12,48.8,13z"/><path fill="#000000" d="M120.6,7.8c-6.7,1.6-13.9,6.4-18,11.8c-4.7,6.3-6.4,11.4-6.5,19.5c0,5,0.2,6.1,1.5,10c3.5,9.9,11.3,17.6,21,20.6c5.1,1.6,13.9,1.6,19,0c4.8-1.5,9.4-4.4,13.1-8c3.7-3.7,6.1-7.6,8-12.9c1.2-3.5,1.4-5,1.4-9.7c0-4.7-0.2-6.3-1.3-9.8c-3.4-10.5-12.6-19-23-21.5C131.7,6.9,124.2,6.9,120.6,7.8z M134.9,13c10.1,2.7,18.2,11.7,19.8,22.2c2.4,16-10.5,30.8-26.7,30.8c-7,0-13.2-2.5-18.5-7.6c-4.4-4.1-7.2-9.5-8.1-15.4c-2-13,6.5-26.2,19.3-29.8C124.5,12,131,11.9,134.9,13z"/><path fill="#000000" d="M206.4,7.8c-15,3.6-25.4,17.8-24.4,33.1c1.1,17,15.2,30.2,32.1,30.2c8.7,0,15.9-3.1,22.3-9.4c3.4-3.4,4.6-5,6.3-8.5c1.1-2.4,2.3-5.5,2.6-6.9c0.9-3.6,0.8-11.5-0.2-15.3c-2.9-11.1-12.2-20.3-23.6-23.2C217.8,6.9,210.2,6.9,206.4,7.8z M220.7,13c6.5,1.7,12.3,5.9,16,11.7c2.8,4.4,4,8.6,4,14.4c0,8.1-2.9,14.6-8.7,19.9c-12.1,10.9-30.7,8.8-40-4.4c-3.5-5.1-4.8-9.1-4.8-15.5c0-4,0.3-5.9,1.2-8.6c2.9-8.5,10-15.2,18.5-17.5C210.6,12,217.2,12,220.7,13z"/><path fill="#000000" d="M37.1,96.2c-9.2,1.6-16.7,6.5-21.8,14.1C8.2,121,8.2,135,15.4,145.7c3.3,4.9,7.3,8.5,12.4,11c5.4,2.6,8.7,3.4,14.7,3.3c8.1-0.1,15.4-3,21.4-8.6c4.2-3.9,6.7-7.7,8.6-13.2c1.3-3.8,1.5-5.1,1.5-10c0.1-9.4-2.6-15.9-9.2-22.6c-4.3-4.3-8.7-7.1-14-8.6C47.4,96.1,40.4,95.6,37.1,96.2z M47.3,101.6c14.1,3,23.7,16.7,21.4,30.6c-3.7,21.6-30.1,30.3-45.5,15c-15.2-15.1-7.6-41,13.3-45.6C40.6,100.7,43,100.7,47.3,101.6z"/><path fill="#000000" d="M124.2,96.1c-7.3,1-13.4,4.1-18.7,9.4c-10,10-12.3,24.2-6.1,36.9c3,6,8.2,11.3,14.4,14.3c9.2,4.6,19.3,4.6,28.5-0.1c8.9-4.4,15.5-13.2,17.3-23c1.9-10.5-1.3-20.5-9-28.2C143.5,98.3,133.5,94.8,124.2,96.1z M133.3,101.6c6.9,1.4,12.4,5,16.5,10.6c7.8,10.7,6.7,25.3-2.8,34.8c-4,4.1-8.3,6.3-14.1,7.5c-9.8,2-20.2-2.1-26.4-10.5c-4.6-6-6.4-13.7-4.9-20.9c1.2-5.8,3.4-10,7.5-14.1c3.8-3.9,8.2-6.3,13.3-7.4C126.7,100.7,129,100.7,133.3,101.6z"/><path fill="#000000" d="M209.7,96c-3.1,0.5-7.2,1.9-10.7,3.6c-5.1,2.6-11.2,8.8-13.7,14c-2,4.2-3.5,10.1-3.5,14.3c0,14,10,27,23.8,31c3.7,1.1,11.7,1.2,15.6,0.3c1.5-0.4,4.7-1.5,6.9-2.7c17.3-8.5,23.2-30.3,12.5-46.3c-1.4-2.1-3.8-5-5.4-6.4c-3.1-2.8-9.5-6.1-13.6-7.1C218.8,96.1,212,95.6,209.7,96z M219.4,101.6c10,2.1,18.4,10.2,20.8,20c0.8,3.3,0.8,9.5,0,12.8c-1,4.3-4,9.5-7.4,12.8c-10.9,10.8-28.5,10.2-38.8-1.3c-15.4-17.2-3.5-44.2,19.9-45C215,100.9,217.5,101.2,219.4,101.6z"/><path fill="#000000" d="M33.8,185.9c-5.8,1.5-9.6,3.8-14.2,8.5c-6.7,6.6-9.6,13.5-9.6,22.5c0,12.4,6.8,23.3,17.8,28.7c4.8,2.4,8.8,3.3,14.1,3.3c12.7-0.1,23.6-6.9,29.1-18.2c8.4-17.6-0.4-37.7-19.2-44.4C47.4,184.8,38.8,184.5,33.8,185.9z M48.3,190.7c9.2,2.4,16.3,9,19.3,17.6c1.5,4.5,1.6,12.3,0.2,16.5c-6.4,18.9-29.3,25.3-43.7,12.1c-6-5.5-8.9-12-8.9-20.1c0-8,2.9-14.6,8.8-20C30.4,191.1,40.4,188.5,48.3,190.7z"/><path fill="#000000" d="M120,185.8c-8.8,2.4-15.7,7.8-20.3,15.9c-3.9,6.9-4.8,17-2.3,24.9c3.5,10.6,12.2,18.7,23.2,21.5c3.9,1,11,1,14.9,0c9.1-2.4,17.2-8.7,21.3-16.7c3.6-7.1,4.4-17,1.8-24.3c-0.8-2.3-2.2-5.4-3.2-7c-3.7-6.1-10.7-11.6-17.6-13.8C132.9,184.8,124.8,184.5,120,185.8z M133.7,190.5c9.1,1.9,17.5,9.8,20.1,18.8c1.9,6.8,1.4,13-1.8,19.4c-3.1,6.3-8.4,11.1-14.9,13.7c-3.5,1.3-10.9,1.8-15,0.9c-13.4-2.8-22.9-16.4-20.9-30.2c1.5-10.5,10-19.9,20.2-22.4C124.9,189.9,130.3,189.8,133.7,190.5z"/><path fill="#000000" d="M208.5,185.2c-5.9,1-12.6,4.6-17.2,9.2c-9.6,9.6-12,23.9-6.2,36.3c3.2,6.7,8.3,11.8,15,15.1c4.4,2.2,8.8,3.1,14,3.1c8.8,0,15.9-3,22.3-9.4c6.7-6.7,9.5-13.4,9.5-22.5c0-5.9-0.6-8.6-3.3-14.1c-1.6-3.5-2.8-5.1-6.2-8.5c-4.8-4.7-8.6-7-14.4-8.5C218.3,184.9,212,184.6,208.5,185.2z M220.4,190.7c6.8,1.7,12.5,5.9,16.3,11.7c5.5,8.5,5.5,20.3,0,28.8c-5.2,7.9-13.4,12.5-22.6,12.5c-11.8,0-21.9-7.2-25.7-18.3c-1.7-4.9-1.7-12.3-0.1-17.2c2.2-6.3,7.6-12.6,13.4-15.6C206.9,190.1,214.8,189.3,220.4,190.7z"/></g></g></g>
</svg>